<mxfile host="65bd71144e">
    <diagram id="ASTWp4ZXTidoFe2xOwB_" name="1b">
        <mxGraphModel dx="498" dy="825" grid="1" gridSize="10" guides="1" tooltips="1" connect="1" arrows="1" fold="1" page="1" pageScale="1" pageWidth="827" pageHeight="1169" math="0" shadow="0">
            <root>
                <mxCell id="0"/>
                <mxCell id="1" parent="0"/>
                <mxCell id="51" value="政府機關" style="rounded=0;whiteSpace=wrap;html=1;fontSize=20;fontColor=#FFFfff;fillColor=none;" vertex="1" parent="1">
                    <mxGeometry x="180" y="170" width="120" height="50" as="geometry"/>
                </mxCell>
                <mxCell id="57" style="edgeStyle=none;html=1;exitX=1;exitY=0.5;exitDx=0;exitDy=0;entryX=0;entryY=0.5;entryDx=0;entryDy=0;fontSize=20;fontColor=#FFFfff;endArrow=none;endFill=0;" edge="1" parent="1" source="52" target="56">
                    <mxGeometry relative="1" as="geometry"/>
                </mxCell>
                <mxCell id="52" value="+人民資料&lt;br&gt;" style="rounded=0;whiteSpace=wrap;html=1;fontSize=20;fontColor=#FFFfff;fillColor=none;" vertex="1" parent="1">
                    <mxGeometry x="180" y="220" width="120" height="90" as="geometry"/>
                </mxCell>
                <mxCell id="55" value="民眾" style="rounded=0;whiteSpace=wrap;html=1;fontSize=20;fontColor=#FFFfff;fillColor=none;" vertex="1" parent="1">
                    <mxGeometry x="430" y="130" width="150" height="50" as="geometry"/>
                </mxCell>
                <mxCell id="56" value="+身分證字號&lt;br&gt;+居留證號&lt;br&gt;+代領金融代號&lt;br&gt;+金融機構帳號&lt;br&gt;+健保卡卡號" style="rounded=0;whiteSpace=wrap;html=1;fontSize=20;fontColor=#FFFfff;fillColor=none;" vertex="1" parent="1">
                    <mxGeometry x="430" y="180" width="150" height="160" as="geometry"/>
                </mxCell>
                <mxCell id="60" value="&lt;font style=&quot;font-size: 14px;&quot;&gt;1...*&lt;/font&gt;" style="text;html=1;align=center;verticalAlign=middle;resizable=0;points=[];autosize=1;strokeColor=none;fillColor=none;fontSize=20;fontColor=#FFFfff;" vertex="1" parent="1">
                    <mxGeometry x="380" y="220" width="50" height="40" as="geometry"/>
                </mxCell>
            </root>
        </mxGraphModel>
    </diagram>
    <diagram id="YNBZmlXG5lnyesX3e9GX" name="1d">
        <mxGraphModel dx="1102" dy="787" grid="1" gridSize="10" guides="1" tooltips="1" connect="1" arrows="1" fold="1" page="1" pageScale="1" pageWidth="827" pageHeight="1169" math="0" shadow="0">
            <root>
                <mxCell id="0"/>
                <mxCell id="1" parent="0"/>
            </root>
        </mxGraphModel>
    </diagram>
    <diagram id="AscKv5OJ8TlSJ3xA4gjY" name="2b">
        <mxGraphModel dx="1102" dy="787" grid="1" gridSize="10" guides="1" tooltips="1" connect="1" arrows="1" fold="1" page="1" pageScale="1" pageWidth="827" pageHeight="1169" math="0" shadow="0">
            <root>
                <mxCell id="0"/>
                <mxCell id="1" parent="0"/>
            </root>
        </mxGraphModel>
    </diagram>
    <diagram id="jKp8lnFoO_ODNvvGuu6S" name="2d">
        <mxGraphModel dx="1102" dy="787" grid="1" gridSize="10" guides="1" tooltips="1" connect="1" arrows="1" fold="1" page="1" pageScale="1" pageWidth="827" pageHeight="1169" math="0" shadow="0">
            <root>
                <mxCell id="0"/>
                <mxCell id="1" parent="0"/>
            </root>
        </mxGraphModel>
    </diagram>
</mxfile>